<?xml version="1.0" standalone="no"?>
<!DOCTYPE svg PUBLIC "-//W3C//DTD SVG 20010904//EN"
 "http://www.w3.org/TR/2001/REC-SVG-20010904/DTD/svg10.dtd">
<svg version="1.0" xmlns="http://www.w3.org/2000/svg"
 width="1024.000000pt" height="1024.000000pt" viewBox="0 0 1024.000000 1024.000000"
 preserveAspectRatio="xMidYMid meet">
<metadata>
Created by potrace 1.14, written by Peter Selinger 2001-2017
</metadata>
<g transform="translate(0.000000,1024.000000) scale(0.100000,-0.100000)"
fill="#000000" stroke="none">
<path d="M4890 7914 c-366 -41 -619 -113 -925 -264 -400 -197 -699 -439 -981
-795 -295 -373 -482 -800 -564 -1286 -31 -180 -38 -524 -16 -719 82 -717 374
-1304 898 -1809 279 -268 648 -484 1023 -599 616 -190 1283 -150 1875 112 672
299 1222 900 1482 1621 73 202 135 475 158 695 22 217 6 583 -36 785 -91 445
-275 840 -564 1215 -96 123 -339 367 -460 460 -383 296 -764 469 -1220 557
-119 23 -164 26 -385 28 -137 2 -266 1 -285 -1z m268 -477 c68 -100 56 -217
-29 -293 -12 -10 -35 -39 -51 -63 -24 -39 -28 -54 -28 -120 0 -48 8 -100 20
-139 20 -64 27 -142 12 -142 -24 0 -114 97 -143 155 -63 128 -36 244 79 342
74 63 94 110 92 216 -1 45 -1 86 -1 90 2 14 20 -3 49 -46z m38 -421 c70 -91
88 -138 88 -221 0 -106 -43 -173 -145 -225 -48 -25 -54 -25 -66 3 -9 20 -6 27
23 55 60 58 68 151 24 320 -11 44 -18 87 -15 96 3 9 7 23 10 31 7 24 32 7 81
-59z m562 -631 c60 -43 109 -199 97 -310 -9 -78 -27 -120 -70 -160 l-36 -32 1
-533 c0 -387 -3 -536 -11 -546 -19 -23 -48 -17 -55 12 -4 15 -5 260 -2 545 l5
519 -33 25 c-17 13 -43 46 -55 72 -20 40 -24 63 -23 138 1 118 23 192 73 245
41 43 72 50 109 25z m-1356 -157 c3 -128 5 -153 18 -153 13 0 15 25 18 153 1
87 7 152 12 152 5 0 11 -65 12 -152 3 -136 5 -153 21 -156 16 -3 17 9 17 152
0 132 2 156 15 156 13 0 15 -24 15 -156 0 -143 1 -155 18 -152 15 3 17 20 20
156 2 118 5 152 16 152 10 0 14 -45 19 -207 6 -227 8 -217 -59 -333 l-25 -45
2 -482 c3 -523 4 -513 -52 -513 -47 0 -51 20 -39 223 11 207 12 532 1 687 -6
97 -10 110 -43 165 l-36 60 -4 223 -4 222 28 0 27 0 3 -152z m751 -42 c3 -8 7
-315 8 -681 1 -625 0 -667 -16 -685 -25 -28 -42 -25 -64 11 -17 28 -18 49 -14
307 l6 277 -37 132 c-20 73 -39 162 -43 199 -6 63 -5 67 21 87 42 35 68 124
74 255 l5 112 27 0 c15 0 30 -6 33 -14z m1736 -1697 c86 -19 133 -74 133 -155
0 -50 -28 -102 -70 -130 -26 -18 -93 -19 -1816 -22 l-1789 -2 -43 21 c-99 47
-121 170 -45 243 61 58 -44 55 1846 55 1141 0 1755 -3 1784 -10z m-249 -595
c0 -4 -18 -43 -40 -87 -162 -323 -511 -606 -913 -741 -549 -184 -1128 -97
-1607 242 -207 146 -424 406 -474 570 l-7 22 1520 0 c837 0 1521 -3 1521 -6z"/>
</g>
</svg>
